<?xml version="1.0" standalone="no"?>
<!DOCTYPE svg PUBLIC "-//W3C//DTD SVG 20010904//EN"
 "http://www.w3.org/TR/2001/REC-SVG-20010904/DTD/svg10.dtd">
<svg version="1.0" xmlns="http://www.w3.org/2000/svg"
 width="300.000000pt" height="400.000000pt" viewBox="0 0 300.000000 400.000000"
 preserveAspectRatio="xMidYMid meet">

<g transform="translate(0.000000,400.000000) scale(0.100000,-0.100000)"
fill="#000000" stroke="none">
<path d="M1075 3980 c-639 -39 -958 -98 -1029 -193 -20 -27 -20 -27 0 -54 24
-32 88 -56 129 -47 16 3 64 21 105 39 77 35 234 78 325 90 28 4 68 16 90 26
49 23 278 50 407 47 76 -1 84 -2 43 -7 -27 -4 155 -9 405 -13 455 -6 595 -15
825 -54 155 -26 283 -64 358 -105 9 -5 46 -11 81 -13 81 -6 126 17 126 64 0
54 -97 101 -289 140 -57 11 -133 22 -169 23 l-67 2 0 -30 0 -30 -70 3 c-69 3
-210 29 -169 31 34 2 37 28 6 40 -24 9 -23 10 13 5 31 -3 35 -2 18 5 -61 27
-842 48 -1138 31z m1110 -60 c3 -5 -1 -10 -9 -10 -9 0 -16 5 -16 10 0 6 4 10
9 10 6 0 13 -4 16 -10z m-60 -49 c43 -10 -51 -7 -260 9 -98 8 -92 8 55 4 91
-2 183 -8 205 -13z"/>
<path d="M1028 3863 c12 -2 32 -2 45 0 12 2 2 4 -23 4 -25 0 -35 -2 -22 -4z"/>
<path d="M1165 3830 c-66 -5 -142 -16 -170 -24 -49 -15 -48 -15 60 -8 61 4
259 7 440 6 327 0 490 -10 670 -41 50 -8 119 -17 155 -20 36 -2 114 -13 175
-23 60 -10 111 -17 113 -16 1 2 -24 13 -55 24 -70 25 -238 56 -388 71 -60 6
-157 15 -214 21 -146 14 -642 20 -786 10z"/>
<path d="M620 3773 c-151 -26 -283 -64 -268 -78 3 -3 88 11 221 35 31 6 63 8
69 4 7 -4 8 -3 4 5 -4 6 -2 18 4 26 7 8 9 14 4 14 -5 -1 -20 -4 -34 -6z"/>
<path d="M1250 3770 c-63 -4 -137 -8 -165 -9 -44 -2 -47 -3 -25 -12 14 -6 59
-8 100 -6 41 3 235 6 430 8 217 1 332 5 295 9 -95 12 -509 19 -635 10z"/>
<path d="M73 3674 c9 -11 17 -24 17 -28 0 -11 27 -36 39 -36 6 0 11 -4 11 -10
0 -5 6 -10 14 -10 22 0 70 -20 63 -26 -3 -3 -32 2 -66 11 -53 16 -62 16 -75 2
-13 -13 -13 -16 2 -30 9 -8 32 -22 50 -31 l32 -17 0 -229 0 -229 80 -25 c153
-49 445 -96 693 -112 l107 -7 0 30 c0 46 55 146 106 193 53 49 138 90 197 96
39 5 38 3 -21 -17 -37 -13 -81 -39 -109 -63 -49 -43 -103 -111 -103 -130 0 -6
9 3 19 20 95 155 292 206 465 120 80 -39 122 -84 163 -172 23 -50 25 -66 21
-142 -4 -70 -10 -98 -32 -141 -58 -113 -165 -182 -293 -189 -137 -8 -244 52
-330 184 -12 18 -12 18 -6 -1 11 -32 69 -108 100 -131 82 -61 187 -88 279 -74
77 12 111 29 179 88 88 76 125 167 126 305 0 104 -23 167 -90 235 -58 60 -46
63 16 4 55 -51 86 -104 104 -176 6 -25 15 -46 19 -46 4 0 95 7 201 15 359 29
618 75 747 133 l32 14 0 224 c0 137 -4 225 -10 229 -5 3 -15 15 -21 27 -7 12
-7 18 -1 14 6 -3 12 -2 14 3 1 4 13 12 26 15 17 6 22 3 22 -10 0 -9 -8 -23
-17 -31 -16 -11 -14 -12 12 -1 47 19 63 36 58 63 -5 25 -5 25 -83 -7 -14 -6
-30 -12 -36 -13 -6 -2 -49 -12 -96 -24 -100 -24 -402 -64 -648 -86 -322 -28
-1020 -17 -1350 21 -169 19 -380 53 -400 65 -13 7 -13 8 0 9 8 0 31 -5 50 -10
19 -5 60 -12 90 -14 30 -2 116 -11 190 -20 302 -34 785 -50 1125 -36 121 5
231 11 245 14 14 2 59 7 100 10 41 4 116 12 165 19 50 8 114 15 144 16 30 1
77 6 104 12 27 5 67 9 88 9 22 0 39 4 39 9 0 4 16 7 35 5 19 -1 35 2 35 7 0 5
6 9 14 9 7 0 39 11 70 25 31 14 65 25 76 25 13 0 20 7 20 20 0 11 5 20 12 20
6 0 9 3 5 6 -3 3 -45 -6 -94 -20 -48 -14 -142 -38 -208 -52 -66 -14 -140 -29
-164 -35 -157 -33 -805 -63 -1177 -53 -219 5 -455 19 -579 35 -212 26 -576
105 -615 133 -10 7 -9 4 3 -10z m2004 -170 c-3 -3 -12 -4 -19 -1 -8 3 -5 6 6
6 11 1 17 -2 13 -5z"/>
<path d="M265 3650 c3 -5 10 -10 16 -10 5 0 9 5 9 10 0 6 -7 10 -16 10 -8 0
-12 -4 -9 -10z"/>
<path d="M2665 3650 c-3 -6 1 -7 9 -4 18 7 21 14 7 14 -6 0 -13 -4 -16 -10z"/>
<path d="M1360 3546 c0 -14 15 -16 118 -15 141 0 124 18 -25 26 -82 5 -93 4
-93 -11z"/>
<path d="M2892 3390 c0 -14 2 -19 5 -12 2 6 2 18 0 25 -3 6 -5 1 -5 -13z"/>
<path d="M55 3308 c2 -55 6 -65 29 -83 23 -17 28 -18 36 -5 24 38 2 121 -36
139 -14 6 -26 11 -28 11 -2 0 -3 -28 -1 -62z"/>
<path d="M2882 3330 c0 -14 2 -19 5 -12 2 6 2 18 0 25 -3 6 -5 1 -5 -13z"/>
<path d="M1240 2885 c0 -154 10 -185 72 -216 57 -29 184 -32 240 -5 66 32 71
47 69 239 l-1 107 -44 0 c-25 0 -56 -4 -71 -10 -26 -10 -26 -10 -25 -117 2
-132 -2 -143 -46 -143 -47 0 -54 20 -54 148 0 125 2 122 -86 122 l-54 0 0
-125z"/>
<path d="M66 2918 c1 -46 6 -65 20 -75 34 -25 44 -16 44 37 0 42 -5 55 -26 75
-15 14 -30 25 -34 25 -4 0 -6 -28 -4 -62z"/>
<path d="M1081 2794 c0 -11 3 -14 6 -6 3 7 2 16 -1 19 -3 4 -6 -2 -5 -13z"/>
<path d="M2383 2563 c-18 -6 -16 -23 1 -23 17 0 30 16 19 23 -5 2 -14 2 -20 0z"/>
<path d="M2200 2500 c-14 -11 -19 -20 -12 -20 19 0 52 19 52 30 0 15 -12 12
-40 -10z"/>
<path d="M2027 2473 c-18 -5 -18 -5 0 -19 25 -19 33 -17 33 6 0 20 -2 21 -33
13z"/>
<path d="M2514 2398 c-4 -7 -7 -31 -5 -55 1 -26 -4 -51 -13 -65 -22 -31 -20
-46 4 -22 30 30 44 41 77 58 35 18 54 61 22 51 -13 -4 -26 2 -43 19 -26 29
-32 31 -42 14z"/>
<path d="M1946 2359 c-12 -16 -20 -20 -23 -11 -3 6 -14 12 -26 12 -20 0 -20 0
-1 -15 19 -14 19 -14 -1 -15 l-20 -1 20 -9 c20 -8 64 -3 78 10 4 3 4 17 -1 30
l-9 23 -17 -24z"/>
<path d="M2355 2291 c-15 -18 -16 -26 -6 -63 10 -41 9 -44 -16 -65 -15 -12
-25 -25 -22 -28 3 -3 17 4 30 16 13 12 45 35 72 51 26 16 47 37 47 45 0 9 -6
13 -13 10 -17 -6 -28 1 -43 27 -15 28 -28 29 -49 7z"/>
<path d="M990 2214 c0 -8 -5 -12 -10 -9 -12 8 -45 -23 -35 -33 4 -4 17 -7 30
-7 19 -1 23 4 23 32 0 18 -2 33 -4 33 -2 0 -4 -7 -4 -16z"/>
<path d="M2192 2187 c-22 -23 -31 -64 -12 -52 5 3 19 -9 30 -27 11 -18 20 -27
20 -20 0 6 3 12 8 11 4 -1 17 2 30 6 29 10 28 33 -2 41 -12 3 -29 19 -37 35
l-14 30 -23 -24z"/>
<path d="M786 2155 c-19 -19 -19 -24 -6 -45 8 -12 10 -9 10 12 0 14 6 28 13
31 6 2 9 7 6 11 -4 4 -14 0 -23 -9z"/>
<path d="M1254 2145 c-8 -20 13 -45 37 -45 22 0 25 26 6 43 -19 18 -37 19 -43
2z"/>
<path d="M88 1963 c5 -10 10 -40 11 -68 3 -57 6 -65 27 -65 9 0 14 11 14 33 0
43 -10 78 -21 71 -5 -3 -7 1 -4 8 3 7 -4 19 -15 26 -19 12 -20 11 -12 -5z"/>
<path d="M683 1750 c0 -60 4 -80 14 -80 7 0 13 11 13 26 0 15 4 23 10 19 21
-13 68 6 72 29 5 24 -4 60 -13 54 -3 -2 -13 5 -23 15 -10 9 -30 17 -45 17
l-29 0 1 -80z m85 16 c-2 -15 -11 -22 -30 -24 -26 -3 -28 -1 -28 32 0 35 0 35
31 24 23 -8 29 -16 27 -32z"/>
<path d="M2135 1800 c-33 -37 -4 -80 55 -80 13 0 13 1 0 11 -12 8 -12 10 -1 7
21 -6 21 -47 0 -59 -10 -5 -30 -7 -44 -3 -27 7 -35 -10 -9 -20 47 -18 94 8 94
52 0 24 -33 46 -60 39 -13 -3 -17 1 -15 22 1 14 3 29 3 32 3 10 36 5 44 -6 4
-5 10 -6 15 -2 10 10 -16 27 -43 27 -11 0 -29 -9 -39 -20z"/>
<path d="M832 1728 l3 -83 58 -5 c42 -4 57 -2 57 7 0 8 -12 13 -29 13 -42 0
-61 10 -61 31 0 15 7 19 40 19 22 0 40 4 40 9 0 5 -18 11 -40 15 -34 5 -40 10
-40 30 0 13 7 27 16 30 8 3 12 2 9 -4 -4 -6 9 -10 29 -10 47 0 46 16 -1 24
-87 14 -85 16 -81 -76z"/>
<path d="M2056 1801 c-4 -7 -5 -15 -2 -18 9 -9 19 4 14 18 -4 11 -6 11 -12 0z"/>
<path d="M982 1788 c3 -7 14 -14 26 -16 22 -3 23 -7 26 -87 1 -11 4 -25 9 -32
4 -6 1 -14 -5 -16 -8 -3 -6 -6 5 -6 15 -1 17 9 17 69 l0 70 32 0 c46 0 22 16
-34 23 -32 5 -48 3 -51 -6 -4 -9 -6 -9 -6 1 -1 6 -6 12 -12 12 -6 0 -9 -6 -7
-12z"/>
<path d="M1910 1791 c0 -5 -8 -7 -18 -4 -10 2 -27 -6 -42 -22 -55 -59 -11
-152 68 -142 70 10 104 87 62 140 -13 16 -29 26 -36 23 -8 -3 -14 -1 -14 4 0
6 -4 10 -10 10 -5 0 -10 -4 -10 -9z m70 -37 c0 -2 -10 1 -22 7 -22 11 -22 11
-7 -7 20 -22 30 -84 15 -81 -6 1 -10 -4 -8 -11 1 -8 -2 -11 -8 -7 -5 3 -10 2
-10 -3 0 -13 -58 -2 -71 15 -14 16 -19 94 -6 86 4 -3 13 0 20 5 24 20 97 17
97 -4z"/>
<path d="M1160 1706 c0 -71 3 -86 15 -86 13 0 15 14 13 82 -2 54 -7 83 -15 86
-10 3 -13 -18 -13 -82z"/>
<path d="M1230 1770 c0 -5 11 -10 24 -10 30 0 36 -16 36 -91 0 -44 4 -59 14
-59 11 0 14 16 14 73 0 71 0 72 26 71 16 -1 26 4 26 12 0 11 -18 14 -70 14
-40 0 -70 -4 -70 -10z"/>
<path d="M1415 1756 c-22 -33 -10 -52 41 -72 44 -17 57 -40 28 -51 -8 -3 -27
0 -40 6 -32 14 -51 4 -27 -15 40 -30 113 -10 113 30 0 27 -15 42 -52 51 -38
10 -52 29 -33 45 12 10 21 10 40 2 27 -13 48 4 24 19 -28 18 -78 10 -94 -15z"/>
<path d="M1660 1695 c0 -69 3 -85 15 -85 10 0 15 10 15 30 0 27 3 30 33 30 40
0 67 25 67 63 0 33 -25 47 -84 47 l-46 0 0 -85z m99 41 c4 -22 -23 -46 -51
-46 -14 0 -18 8 -18 36 0 34 1 35 32 32 23 -2 34 -9 37 -22z"/>
<path d="M2050 1705 c0 -37 4 -65 10 -65 6 0 10 28 10 65 0 37 -4 65 -10 65
-6 0 -10 -28 -10 -65z"/>
<path d="M742 1448 l3 -142 35 -7 c212 -44 849 -57 1190 -25 102 10 186 19
188 21 5 4 3 277 -2 283 -3 2 -72 -2 -153 -9 -222 -21 -893 -18 -1082 4 -79 9
-152 17 -163 17 -17 0 -18 -8 -16 -142z m527 31 c13 -11 21 -22 17 -26 -10
-10 -56 15 -56 32 0 20 10 19 39 -6z m351 -6 c0 -12 -9 -14 -45 -10 -37 5 -47
3 -52 -10 -4 -9 -1 -19 5 -21 17 -5 15 -22 -3 -22 -9 0 -20 -20 -30 -55 -11
-36 -22 -55 -32 -55 -12 0 -14 7 -7 38 4 20 8 49 8 64 1 16 13 41 29 57 23 25
35 30 77 29 38 0 50 -4 50 -15z m-533 -7 c-4 -9 1 -17 11 -19 14 -4 13 -6 -5
-12 -13 -4 -23 -10 -23 -14 0 -3 -3 -17 -7 -30 l-6 -24 31 19 c18 10 32 26 32
36 0 22 29 36 39 20 4 -7 12 -8 21 -2 22 14 30 12 30 -7 0 -13 3 -14 12 -5 17
17 67 15 74 -3 9 -21 -14 -45 -42 -45 -13 0 -24 -4 -24 -10 0 -5 10 -10 23
-10 15 0 38 16 64 45 22 25 45 45 50 45 18 0 7 -92 -13 -107 -22 -16 -51 -17
-56 -2 -3 9 -9 9 -26 0 -45 -24 -93 10 -76 54 5 13 3 16 -12 13 -10 -2 -18
-11 -18 -21 1 -9 -2 -15 -6 -12 -4 3 -10 -4 -13 -15 -3 -11 -13 -20 -22 -20
-13 0 -16 6 -12 26 l4 25 -22 -21 c-14 -13 -33 -20 -47 -18 -20 3 -23 8 -23
48 0 33 6 50 20 62 25 21 49 23 42 4z m760 -48 c1 -55 -19 -79 -66 -77 -20 0
-45 -1 -56 -3 -17 -3 -20 2 -18 32 l3 35 -33 -38 c-32 -37 -64 -51 -53 -22 5
14 4 14 -16 0 -43 -30 -81 -7 -58 35 6 10 10 28 10 39 0 14 6 21 20 21 22 0
25 -16 10 -54 -10 -29 0 -35 20 -11 7 8 16 13 20 10 5 -3 10 7 12 22 2 20 9
28 23 28 12 0 19 -6 17 -15 -3 -11 1 -10 17 4 11 10 28 16 38 14 18 -4 19 -13
8 -58 -7 -26 -5 -24 70 63 23 26 30 21 32 -25z"/>
<path d="M1245 1410 c-3 -5 -1 -10 4 -10 6 0 11 5 11 10 0 6 -2 10 -4 10 -3 0
-8 -4 -11 -10z"/>
<path d="M1322 1378 c-15 -15 -16 -31 0 -26 6 2 12 12 14 21 3 20 2 21 -14 5z"/>
<path d="M1790 1375 c-10 -12 -10 -15 4 -15 9 0 16 7 16 15 0 8 -2 15 -4 15
-2 0 -9 -7 -16 -15z"/>
<path d="M2867 1503 c-4 -3 -7 -69 -7 -146 0 -123 2 -138 15 -127 12 10 15 40
15 146 0 123 -4 146 -23 127z"/>
<path d="M2220 1450 c-13 -8 -12 -10 3 -10 10 0 15 -5 12 -11 -4 -6 -13 -8
-21 -5 -18 7 -29 -13 -14 -27 9 -9 17 -5 36 18 13 17 24 33 24 38 0 10 -22 9
-40 -3z"/>
<path d="M2496 1421 c-4 -7 -5 -15 -2 -18 9 -9 19 4 14 18 -4 11 -6 11 -12 0z"/>
<path d="M2613 1407 c-16 -17 -19 -27 -12 -46 5 -13 7 -40 4 -60 -6 -34 -5
-35 9 -17 11 14 14 31 10 56 -4 22 -1 47 6 60 16 30 7 34 -17 7z"/>
<path d="M2327 1382 c-21 -23 -21 -32 -3 -32 20 0 41 29 29 41 -6 6 -15 3 -26
-9z"/>
<path d="M2800 1355 c0 -24 5 -35 15 -35 10 0 15 10 15 29 0 16 -6 31 -15 35
-12 4 -15 -3 -15 -29z"/>
<path d="M2485 1310 c-3 -5 -28 -20 -56 -31 -27 -12 -49 -25 -49 -30 0 -5 14
-16 31 -24 26 -14 30 -20 24 -43 -9 -38 -25 -53 -47 -46 -17 5 -19 2 -13 -28
8 -47 -5 -61 -59 -62 -41 -1 -46 -3 -46 -24 0 -37 -17 -60 -52 -68 -18 -4 -36
-9 -40 -10 -5 -1 -16 -2 -25 -3 -26 -2 25 -51 54 -51 13 0 33 -10 44 -21 18
-18 25 -20 40 -10 10 6 28 11 39 11 26 0 26 20 0 27 -11 3 -20 12 -20 19 0 8
-5 23 -12 34 -10 15 -9 23 6 39 11 12 27 21 37 21 10 0 22 7 27 16 5 9 15 14
21 10 6 -4 8 -12 5 -18 -4 -6 -1 -8 7 -6 8 3 13 11 11 19 -9 39 55 94 93 78
11 -4 25 -8 31 -8 10 -1 44 60 44 78 0 11 -35 4 -68 -12 -32 -15 -56 2 -60 43
-3 26 3 40 28 65 18 19 27 35 22 39 -6 3 -13 2 -17 -4z"/>
<path d="M2725 1270 c-3 -5 1 -10 9 -10 8 0 22 -12 29 -26 l14 -27 7 28 c4 15
6 28 4 30 -12 9 -58 13 -63 5z"/>
<path d="M2290 1259 c0 -7 -7 -17 -16 -23 -14 -11 -13 -14 5 -36 l20 -25 38
39 c21 21 30 36 21 33 -9 -3 -22 1 -28 9 -15 17 -40 19 -40 3z"/>
<path d="M2617 1247 c-10 -27 -9 -49 4 -42 6 4 21 -3 34 -15 24 -23 28 -21 39
23 6 27 6 28 -28 22 -28 -6 -35 -4 -38 12 -3 17 -4 17 -11 0z"/>
<path d="M2168 1215 c-6 -28 3 -32 21 -11 8 10 8 16 -3 25 -11 9 -15 6 -18
-14z"/>
<path d="M967 1223 c-14 -14 -6 -34 18 -43 31 -12 32 -27 3 -33 -20 -4 -19 -4
5 -6 21 -1 27 4 27 19 0 11 -4 20 -8 20 -5 0 -17 6 -28 14 -18 14 -18 15 6 25
22 9 23 10 4 10 -11 1 -24 -2 -27 -6z"/>
<path d="M684 1184 c-156 -83 -257 -199 -304 -349 -27 -89 -36 -236 -21 -344
18 -124 23 -134 82 -155 35 -12 55 -14 61 -8 6 6 17 8 24 5 10 -4 14 4 14 25
0 93 115 74 130 -21 l5 -32 30 43 c59 86 70 95 106 95 19 0 43 -3 54 -7 11 -3
27 -2 35 4 13 9 12 13 -7 27 -30 20 -29 42 2 87 31 45 33 82 5 89 -19 5 -25
-6 -21 -40 1 -9 -9 -12 -33 -9 -34 5 -35 5 -29 -28 4 -26 0 -38 -17 -54 -21
-19 -59 -23 -132 -13 -15 2 -27 73 -17 99 14 36 38 62 59 62 9 0 25 9 36 21
16 17 16 22 4 29 -23 15 -38 12 -44 -8 -4 -12 -23 -22 -58 -29 -69 -14 -85 -8
-95 35 -9 39 -37 51 -53 24 -5 -10 -10 -12 -10 -6 0 6 -7 11 -15 11 -11 0 -14
-6 -9 -16 3 -9 10 -28 14 -43 13 -44 18 -47 50 -38 47 14 80 -31 80 -110 0
-43 -12 -51 -53 -37 -38 13 -49 0 -37 -43 23 -79 7 -111 -50 -102 -20 3 -37
16 -55 43 -25 39 -25 40 -9 74 9 21 24 35 34 35 12 0 20 11 24 36 4 19 10 42
12 49 4 10 0 12 -15 8 -14 -3 -33 4 -55 20 -43 34 -39 68 11 92 33 16 34 18
27 61 -5 39 -3 49 17 70 31 33 62 31 92 -7 20 -25 33 -32 71 -35 25 -2 46 0
46 4 0 17 -32 51 -51 54 -22 3 -49 61 -49 105 0 35 28 56 67 48 l34 -6 -7 38
c-4 21 -7 46 -6 56 1 21 -8 22 -34 2 -10 -8 -26 -15 -34 -15 -13 0 81 73 136
106 40 25 5 23 -42 -2z m12 -725 c10 -12 19 -34 19 -51 l0 -29 -27 31 c-27 29
-38 70 -20 70 5 0 17 -9 28 -21z"/>
<path d="M1598 1193 c-2 -10 -1 -31 2 -48 6 -27 7 -25 11 18 4 45 -4 65 -13
30z"/>
<path d="M1051 1190 c-21 -12 -9 -55 17 -58 18 -3 22 1 22 26 0 31 -18 46 -39
32z m29 -31 c0 -10 -7 -19 -15 -19 -15 0 -21 31 -9 43 11 10 24 -3 24 -24z"/>
<path d="M1451 1194 c-1 -7 -10 -14 -21 -17 -26 -7 -27 -52 -2 -62 14 -5 15
-4 5 6 -17 17 -16 49 1 49 8 0 16 -6 19 -12 8 -23 14 -3 6 22 -4 14 -7 20 -8
14z"/>
<path d="M1110 1166 c0 -14 4 -27 8 -30 5 -3 6 8 4 25 -5 35 -12 38 -12 5z"/>
<path d="M1191 1153 c1 -27 3 -31 6 -13 2 14 12 31 21 38 14 11 13 12 -6 12
-19 0 -22 -5 -21 -37z"/>
<path d="M1250 1175 c-18 -22 -8 -50 20 -52 25 -3 25 -3 3 7 -25 10 -29 30
-11 48 7 7 9 12 6 12 -3 0 -11 -7 -18 -15z"/>
<path d="M1708 1180 c17 -19 15 -50 -3 -50 -14 0 -19 11 -16 38 1 6 -3 12 -8
12 -5 0 -9 -14 -9 -31 1 -26 4 -30 27 -27 32 4 40 38 14 58 -15 12 -16 12 -5
0z"/>
<path d="M1751 1150 c1 -27 3 -29 6 -10 2 14 11 30 20 37 13 10 13 12 -6 10
-17 -1 -21 -7 -20 -37z"/>
<path d="M1823 1183 c9 -2 17 -9 17 -14 0 -5 4 -9 10 -9 5 0 7 7 4 15 -4 8
-16 14 -28 14 -16 -1 -17 -2 -3 -6z"/>
<path d="M1154 1155 c-1 -14 2 -25 7 -25 5 0 9 11 9 25 0 33 -15 33 -16 0z"/>
<path d="M1307 1166 c-12 -30 23 -70 38 -45 4 5 1 8 -7 7 -7 -2 -14 7 -16 20
-3 23 21 32 31 12 3 -6 4 -5 3 2 -4 19 -42 22 -49 4z"/>
<path d="M1494 1166 c-9 -22 -1 -49 16 -54 13 -4 13 -3 2 10 -10 13 -10 17 0
21 10 4 10 6 1 6 -7 1 -13 6 -13 11 0 13 27 13 33 0 3 -6 4 -5 3 2 -4 19 -35
22 -42 4z"/>
<path d="M1642 1150 c0 -19 2 -27 5 -17 2 9 2 25 0 35 -3 9 -5 1 -5 -18z"/>
<path d="M1875 1170 c3 -6 13 -10 21 -10 20 0 18 -17 -3 -24 -14 -4 -14 -4 2
-3 27 3 25 28 -3 38 -15 6 -21 5 -17 -1z"/>
<path d="M1801 1159 c-1 -25 27 -45 42 -30 9 10 8 11 -5 6 -13 -5 -21 0 -27
16 -6 16 -10 18 -10 8z"/>
<path d="M120 1151 c0 -5 5 -13 10 -16 6 -3 10 -2 10 4 0 5 -4 13 -10 16 -5 3
-10 2 -10 -4z"/>
<path d="M2721 1117 c0 -10 -10 -31 -22 -46 -20 -27 -20 -30 -5 -59 9 -17 16
-45 16 -62 0 -38 15 -39 35 0 16 32 49 55 65 45 6 -3 10 -27 10 -53 0 -36 -5
-50 -20 -60 -28 -17 -25 -37 5 -37 l25 0 0 109 0 109 -23 -21 c-41 -38 -108
-22 -86 20 6 10 8 31 6 46 -2 15 -5 19 -6 9z"/>
<path d="M816 1079 l16 -31 14 27 c18 36 19 35 -16 35 l-31 0 17 -31z"/>
<path d="M2107 1088 c-13 -19 -16 -20 -16 -5 -1 13 -10 17 -36 17 -19 0 -35
-4 -35 -10 0 -5 6 -10 13 -10 6 0 25 -7 40 -15 25 -13 30 -12 47 5 11 11 20
25 20 30 0 17 -17 11 -33 -12z"/>
<path d="M125 1080 c3 -5 8 -10 11 -10 2 0 4 5 4 10 0 6 -5 10 -11 10 -5 0 -7
-4 -4 -10z"/>
<path d="M2581 1045 c-1 -27 -5 -54 -9 -60 -11 -16 -32 -16 -32 -1 0 7 -8 16
-19 19 -17 4 -18 0 -14 -37 3 -22 7 -43 9 -45 3 -3 17 8 32 22 16 15 33 27 39
27 17 0 20 31 7 80 l-12 45 -1 -50z"/>
<path d="M1270 1073 c0 -2 5 -13 10 -23 11 -21 42 -16 34 5 -5 12 -44 29 -44
18z"/>
<path d="M1465 1060 c-4 -6 -1 -17 5 -25 6 -8 9 -23 5 -35 -12 -37 10 -20 31
25 l21 45 -28 0 c-15 0 -31 -5 -34 -10z"/>
<path d="M1706 1029 c9 -56 10 -57 34 -31 11 11 28 25 37 31 24 13 8 28 -40
36 l-38 7 7 -43z"/>
<path d="M120 1050 c0 -5 5 -10 10 -10 6 0 10 5 10 10 0 6 -4 10 -10 10 -5 0
-10 -4 -10 -10z"/>
<path d="M1037 1039 c-9 -6 -22 -7 -27 -4 -6 3 -10 -3 -10 -14 0 -18 6 -21 40
-21 27 0 40 4 40 14 0 22 -23 36 -43 25z"/>
<path d="M2640 1040 c-8 -5 -12 -11 -9 -14 2 -3 11 -1 19 4 8 5 12 11 9 14 -2
3 -11 1 -19 -4z"/>
<path d="M783 1029 c-5 -5 -29 -11 -51 -13 -51 -3 -57 -8 -42 -36 l12 -23 24
27 c26 27 62 33 95 16 27 -15 42 -4 29 21 -12 21 -49 26 -67 8z"/>
<path d="M1955 989 c-77 -45 -94 -51 -117 -38 -17 9 -24 8 -32 -2 -6 -8 -23
-15 -38 -17 -19 -2 -28 2 -33 17 -7 25 -27 27 -45 6 -7 -8 -16 -12 -21 -9 -5
3 -31 7 -57 9 l-48 4 4 -29 c5 -34 23 -43 59 -29 18 7 36 6 57 -1 72 -27 125
-37 135 -27 12 12 118 47 144 47 25 0 57 36 57 64 0 36 -10 37 -65 5z"/>
<path d="M1235 970 c-15 -16 -31 -29 -34 -28 -3 0 -16 0 -28 -1 -22 -1 -22 -2
-5 -31 26 -45 8 -66 -51 -62 -39 3 -46 1 -52 -18 -4 -12 -22 -28 -41 -36 l-34
-14 36 -32 36 -32 35 42 c26 31 42 42 63 42 22 0 30 6 38 28 9 25 46 51 95 66
16 5 17 8 2 35 -8 17 -15 37 -15 45 0 27 -17 26 -45 -4z"/>
<path d="M83 967 c0 -8 6 -14 14 -14 9 0 10 4 2 14 -6 7 -12 13 -14 13 -1 0
-2 -6 -2 -13z"/>
<path d="M2436 883 c-53 -18 -66 -30 -66 -61 0 -13 -7 -30 -16 -37 -14 -10
-14 -15 -4 -34 12 -23 13 -22 45 27 19 27 41 52 50 55 13 6 41 57 33 62 -2 0
-21 -5 -42 -12z"/>
<path d="M80 865 c7 -8 10 -25 7 -36 -4 -16 -3 -19 5 -11 13 13 2 62 -13 62
-8 0 -7 -5 1 -15z"/>
<path d="M775 870 c3 -5 8 -10 11 -10 2 0 4 5 4 10 0 6 -5 10 -11 10 -5 0 -7
-4 -4 -10z"/>
<path d="M821 866 c-8 -10 -9 -16 -1 -21 5 -3 10 -5 11 -3 4 18 7 38 4 38 -1
0 -8 -6 -14 -14z"/>
<path d="M2602 867 c-5 -7 -12 -22 -15 -35 -5 -20 -2 -22 16 -16 51 16 109 45
103 51 -3 4 -12 1 -18 -5 -16 -16 -44 -15 -61 3 -12 11 -17 12 -25 2z"/>
<path d="M126 842 c-3 -6 -1 -14 5 -17 14 -9 20 -2 10 14 -6 8 -11 9 -15 3z"/>
<path d="M1380 806 c-11 -30 -53 -63 -90 -71 -36 -8 -38 -18 -8 -39 25 -18 38
-13 38 14 0 28 44 53 81 48 36 -6 44 7 30 45 -13 33 -38 35 -51 3z"/>
<path d="M2230 821 c0 -5 -12 -8 -26 -6 -16 1 -30 -4 -37 -16 -13 -20 -71 -27
-82 -10 -3 6 -13 10 -23 10 -9 0 -36 2 -59 4 -37 4 -43 1 -43 -14 0 -16 8 -19
49 -19 51 0 81 -17 81 -47 0 -11 8 -8 31 11 23 19 42 26 75 26 44 0 44 0 44
35 0 19 -2 35 -5 35 -3 0 -5 -4 -5 -9z"/>
<path d="M830 774 c-6 -14 -10 -29 -10 -34 0 -11 58 -75 63 -69 2 2 7 23 10
46 4 34 1 45 -17 62 -29 27 -34 26 -46 -5z"/>
<path d="M1642 788 c-13 -13 -16 -14 -49 -17 -14 -1 -13 -5 7 -16 33 -19 55
-19 70 1 11 12 11 18 -1 30 -12 11 -17 12 -27 2z"/>
<path d="M130 769 c0 -5 5 -7 10 -4 6 3 10 8 10 11 0 2 -4 4 -10 4 -5 0 -10
-5 -10 -11z"/>
<path d="M1550 772 c0 -5 -18 -8 -41 -7 -26 1 -39 -2 -36 -9 15 -39 17 -55 7
-61 -5 -3 -10 -15 -10 -26 0 -14 -7 -19 -27 -19 -26 -1 -27 -1 -8 -12 27 -14
75 -60 75 -70 0 -4 -9 -8 -20 -8 -18 0 -16 -4 11 -28 18 -16 32 -39 33 -53 1
-21 6 -24 38 -24 25 -1 45 -9 63 -25 43 -40 49 -58 29 -88 -41 -63 -88 -87
-143 -72 -67 19 -76 10 -40 -41 19 -27 59 -40 59 -20 0 12 63 51 82 51 8 0 32
-11 52 -25 28 -19 50 -25 89 -25 84 0 125 10 130 31 5 20 44 39 79 39 12 0 36
-11 54 -25 40 -30 64 -24 64 17 0 62 57 138 103 138 11 0 34 -15 51 -33 27
-29 34 -32 45 -20 8 9 24 13 40 10 17 -4 33 1 47 14 20 19 23 19 63 3 23 -9
48 -25 55 -36 12 -17 17 -18 60 -6 46 12 55 21 36 33 -15 9 -12 31 9 75 21 44
16 52 -12 19 -13 -15 -25 -19 -43 -15 -28 7 -104 -12 -104 -26 0 -5 -5 -6 -11
-2 -6 3 -15 0 -20 -7 -7 -12 -9 -12 -9 0 0 11 -4 9 -14 -5 -14 -19 -15 -19
-43 2 -22 16 -33 18 -54 11 -36 -14 -75 -2 -82 24 -12 47 42 107 86 95 32 -8
73 27 71 61 -1 15 -3 35 -3 43 -1 9 -14 1 -37 -23 -20 -20 -41 -38 -48 -38
-26 -3 -52 4 -67 17 -9 8 -27 13 -40 12 -19 -2 -25 2 -27 22 -2 14 -11 33 -20
43 -15 17 -17 17 -29 2 -40 -55 -86 -95 -109 -95 -21 0 -25 -3 -19 -17 4 -10
10 -28 12 -39 7 -32 42 -48 77 -35 54 21 96 7 102 -35 3 -21 -44 -66 -64 -60
-12 4 -25 -7 -47 -40 -43 -64 -65 -66 -124 -13 -27 24 -57 50 -66 58 -12 9
-15 22 -11 42 4 20 1 31 -11 38 -14 8 -15 13 -3 42 11 25 11 34 2 37 -28 9 -9
20 27 15 22 -3 52 -2 68 2 25 6 26 8 9 17 -16 9 -17 18 -12 72 5 46 4 57 -5
43 -11 -19 -58 -21 -71 -3 -3 5 -15 10 -26 11 -16 1 -21 -6 -25 -39 -5 -36
-22 -59 -50 -69 -6 -2 -6 -11 2 -24 20 -38 12 -76 -19 -101 -44 -34 -95 -40
-130 -13 -16 11 -34 21 -41 21 -8 0 -10 15 -6 53 6 48 5 53 -14 54 -46 4 -66
77 -28 101 11 7 18 19 15 27 -3 9 0 12 8 9 17 -6 41 22 26 31 -5 3 -10 2 -10
-3z m283 -373 c20 -7 37 -18 38 -24 1 -11 5 -30 14 -62 9 -29 -25 -51 -97 -59
-52 -6 -58 -5 -80 19 -44 47 -19 113 52 140 17 6 19 6 73 -14z m692 -48 c-9
-16 -25 -3 -18 15 4 10 9 12 15 6 6 -6 7 -15 3 -21z"/>
<path d="M130 739 c0 -5 5 -7 10 -4 6 3 10 8 10 11 0 2 -4 4 -10 4 -5 0 -10
-5 -10 -11z"/>
<path d="M2812 698 c-7 -32 -18 -60 -23 -63 -12 -8 -12 -35 1 -35 6 0 10 8 10
15 0 9 7 24 16 34 10 11 14 31 12 60 l-3 44 -13 -57z"/>
<path d="M2450 695 c0 -8 -9 -15 -19 -15 -32 0 -34 -18 -6 -52 27 -32 29 -56
10 -115 -5 -17 -3 -25 9 -29 24 -9 35 5 13 17 -13 8 -15 14 -7 29 18 33 11 77
-16 109 -25 30 -25 31 -5 31 11 0 25 9 31 20 7 14 7 20 0 20 -5 0 -10 -7 -10
-15z"/>
<path d="M2500 661 c0 -5 7 -11 15 -15 8 -3 15 -1 15 3 0 5 -7 11 -15 15 -8 3
-15 1 -15 -3z"/>
<path d="M2551 654 c0 -11 3 -14 6 -6 3 7 2 16 -1 19 -3 4 -6 -2 -5 -13z"/>
<path d="M1110 649 c0 -5 5 -7 10 -4 6 3 10 8 10 11 0 2 -4 4 -10 4 -5 0 -10
-5 -10 -11z"/>
<path d="M1337 648 c-9 -5 -17 -16 -17 -23 0 -8 -4 -15 -10 -15 -5 0 -21 -12
-35 -26 -16 -16 -42 -28 -65 -31 l-39 -6 24 -42 c14 -23 25 -49 25 -57 0 -19
-38 -63 -46 -55 -7 7 -64 -23 -64 -33 0 -3 18 -6 40 -5 33 1 43 6 62 35 30 44
68 57 109 36 40 -20 39 -20 39 8 0 16 -11 32 -30 46 -45 32 -42 77 10 128 25
26 35 42 26 45 -7 3 -20 1 -29 -5z"/>
<path d="M2890 635 c-11 -13 -10 -14 4 -9 9 3 16 10 16 15 0 13 -6 11 -20 -6z"/>
<path d="M1092 578 c-12 -12 -17 -38 -7 -38 19 0 52 25 48 36 -6 17 -25 18
-41 2z"/>
<path d="M2513 583 c-8 -3 -12 -21 -12 -46 1 -23 4 -32 6 -19 2 12 10 22 16
22 7 0 6 4 -2 9 -12 8 -12 12 -2 25 14 17 14 17 -6 9z"/>
<path d="M2597 569 c4 -13 8 -18 11 -10 2 7 -1 18 -6 23 -8 8 -9 4 -5 -13z"/>
<path d="M2848 535 c-4 -16 -3 -34 2 -38 12 -13 17 5 10 38 l-6 30 -6 -30z"/>
<path d="M952 495 c0 -37 5 -58 15 -63 20 -12 45 -86 30 -91 -7 -2 -24 -12
-39 -22 -14 -11 -38 -19 -52 -19 -26 0 -35 -21 -18 -46 12 -18 53 -27 76 -16
11 6 29 13 39 16 10 3 17 15 17 30 0 16 12 34 32 50 l33 25 -29 30 c-30 31
-35 60 -21 114 7 26 6 27 -23 25 -16 -1 -37 4 -45 10 -13 12 -15 6 -15 -43z"/>
<path d="M1050 540 c0 -5 5 -10 11 -10 5 0 7 5 4 10 -3 6 -8 10 -11 10 -2 0
-4 -4 -4 -10z"/>
<path d="M2794 522 c-4 -18 -11 -35 -15 -38 -12 -7 -11 -44 1 -44 6 0 10 7 10
15 0 9 7 30 16 47 11 21 13 33 5 41 -8 8 -13 2 -17 -21z"/>
<path d="M2702 494 c10 -19 12 -40 8 -61 -4 -18 -5 -33 -1 -33 10 0 36 62 36
88 1 12 -5 22 -11 22 -7 0 -20 3 -29 6 -16 6 -16 4 -3 -22z"/>
<path d="M2895 471 c-11 -35 -93 -110 -171 -155 -90 -52 -208 -96 -381 -142
-123 -32 -125 -33 -63 -29 36 2 89 11 118 20 29 9 56 13 61 10 5 -3 11 -1 13
3 1 5 22 11 46 15 36 4 42 2 42 -13 0 -11 -10 -21 -27 -25 -16 -4 -23 -9 -17
-12 17 -6 173 55 233 92 92 55 126 101 151 198 12 46 8 79 -5 38z"/>
<path d="M90 475 c0 -9 19 -81 28 -105 3 -8 4 -20 3 -27 -3 -21 81 -94 149
-128 107 -53 189 -80 203 -66 9 10 9 11 -3 6 -9 -3 -20 3 -27 15 -12 19 -11
19 35 13 26 -3 49 -10 52 -14 3 -5 16 -7 29 -4 27 5 82 -5 77 -14 -2 -3 12 -6
32 -6 21 0 64 -3 97 -7 48 -5 42 -3 -30 12 -298 62 -532 171 -608 283 -32 48
-37 53 -37 42z"/>
<path d="M1367 351 c-11 -30 -45 -50 -64 -38 -4 3 -6 -15 -4 -39 2 -27 -1 -44
-8 -44 -19 0 -12 -17 10 -23 33 -9 46 1 41 32 -3 22 3 33 23 50 15 11 38 21
51 21 13 0 24 3 24 8 -1 9 -21 34 -43 51 -16 13 -19 11 -30 -18z"/>
<path d="M2259 318 c-1 -7 -1 -16 0 -20 0 -5 -3 -8 -9 -8 -5 0 -10 -6 -10 -14
0 -10 7 -12 25 -8 26 7 27 9 18 42 -6 22 -22 27 -24 8z"/>
<path d="M490 140 c-9 -6 -10 -10 -3 -10 6 0 15 5 18 10 8 12 4 12 -15 0z"/>
<path d="M2163 133 c9 -2 23 -2 30 0 6 3 -1 5 -18 5 -16 0 -22 -2 -12 -5z"/>
<path d="M843 123 c9 -2 23 -2 30 0 6 3 -1 5 -18 5 -16 0 -22 -2 -12 -5z"/>
<path d="M2098 123 c6 -2 18 -2 25 0 6 3 1 5 -13 5 -14 0 -19 -2 -12 -5z"/>
<path d="M1258 83 c12 -2 30 -2 40 0 9 3 -1 5 -23 4 -22 0 -30 -2 -17 -4z"/>
<path d="M1538 83 c39 -2 105 -2 145 0 39 1 7 3 -73 3 -80 0 -112 -2 -72 -3z"/>
</g>
</svg>
